<svg width="446" height="356" fill="none" xmlns="http://www.w3.org/2000/svg"><g opacity=".3" filter="url(#filter0_f)"><ellipse cx="222.807" cy="178.201" rx="156" ry="87.64" transform="rotate(-17 222.807 178.201)" fill="url(#paint0_linear)"/></g><path fill-rule="evenodd" clip-rule="evenodd" d="M226 160a2 2 0 10-4 0v13.172l-9.314-9.314a2 2 0 10-2.828 2.828l9.314 9.314H206a2 2 0 100 4h13.172l-9.314 9.314a2 2 0 102.828 2.828l9.314-9.314V196a2 2 0 104 0v-13.172l9.314 9.314a2 2 0 102.828-2.828L228.828 180H242a2 2 0 100-4h-13.172l9.314-9.314a2 2 0 10-2.828-2.828L226 173.172V160z" fill="#FFD796"/><path fill-rule="evenodd" clip-rule="evenodd" d="M292 112a2 2 0 10-4 0v13.172l-9.314-9.314a2 2 0 10-2.828 2.828l9.314 9.314H272a2 2 0 100 4h13.172l-9.314 9.314a2 2 0 102.828 2.828l9.314-9.314V148a2 2 0 104 0v-13.172l9.314 9.314a2 2 0 102.828-2.828L294.828 132H308a2 2 0 100-4h-13.172l9.314-9.314a2 2 0 10-2.828-2.828L292 125.172V112z" fill="#71739E"/><path fill-rule="evenodd" clip-rule="evenodd" d="M320 245a2 2 0 10-4 0v13.172l-9.314-9.314a2 2 0 10-2.828 2.828l9.314 9.314H300a2 2 0 100 4h13.172l-9.314 9.314a2 2 0 102.828 2.828l9.314-9.314V281a2 2 0 104 0v-13.172l9.314 9.314a2 2 0 102.828-2.828L322.828 265H336a2 2 0 100-4h-13.172l9.314-9.314a2 2 0 10-2.828-2.828L320 258.172V245z" fill="#FF578C"/><path fill-rule="evenodd" clip-rule="evenodd" d="M178 249a2 2 0 10-4 0v13.172l-9.314-9.314a2 2 0 10-2.828 2.828l9.314 9.314H158a2 2 0 100 4h13.172l-9.314 9.314a2 2 0 102.828 2.828l9.314-9.314V285a2 2 0 104 0v-13.172l9.314 9.314a2 2 0 102.828-2.828L180.828 269H194a2 2 0 100-4h-13.172l9.314-9.314a2 2 0 10-2.828-2.828L178 262.172V249z" fill="#385B97"/><path fill-rule="evenodd" clip-rule="evenodd" d="M142 132a2 2 0 10-4 0v13.172l-9.314-9.314a2 2 0 10-2.828 2.828l9.314 9.314H122a2 2 0 100 4h13.172l-9.314 9.314a2 2 0 102.828 2.828l9.314-9.314V168a2 2 0 104 0v-13.172l9.314 9.314a2 2 0 102.828-2.828L144.828 152H158a2 2 0 100-4h-13.172l9.314-9.314a2 2 0 10-2.828-2.828L142 145.172V132z" fill="#FF578C"/><path fill-rule="evenodd" clip-rule="evenodd" d="M213 68a2 2 0 10-4 0v13.172l-9.314-9.314a2 2 0 10-2.828 2.828L206.172 84H193a2 2 0 100 4h13.172l-9.314 9.314a2 2 0 002.828 2.828L209 90.828V104a2 2 0 104 0V90.828l9.314 9.314a2 2 0 102.828-2.828L215.828 88H229a2 2 0 100-4h-13.172l9.314-9.314a2 2 0 00-2.828-2.828L213 81.172V68z" fill="#C1ECF4"/><defs><linearGradient id="paint0_linear" x1="66.807" y1="90.561" x2="199.977" y2="346.712" gradientUnits="userSpaceOnUse"><stop stop-color="#FFD796"/><stop offset="1" stop-color="#C1ECF4"/></linearGradient><filter id="filter0_f" x="0" y=".78" width="445.614" height="354.842" filterUnits="userSpaceOnUse" color-interpolation-filters="sRGB"><feFlood flood-opacity="0" result="BackgroundImageFix"/><feBlend in="SourceGraphic" in2="BackgroundImageFix" result="shape"/><feGaussianBlur stdDeviation="24" result="effect1_foregroundBlur"/></filter></defs></svg>