<svg width="446" height="356" fill="none" xmlns="http://www.w3.org/2000/svg"><g opacity=".3" filter="url(#filter0_f)"><ellipse cx="222.807" cy="178.201" rx="156" ry="87.64" transform="rotate(-17 222.807 178.201)" fill="url(#paint0_linear)"/></g><path fill-rule="evenodd" clip-rule="evenodd" d="M227 142a4 4 0 00-8 0v26.343l-18.627-18.627a4 4 0 00-5.657 5.657L213.343 174H187a4 4 0 000 8h26.343l-18.627 18.627a4 4 0 005.657 5.657L219 187.657V214a4 4 0 008 0v-26.343l18.627 18.627a4 4 0 005.657-5.657L232.657 182H259a4 4 0 000-8h-26.343l18.627-18.627a4 4 0 00-5.657-5.657L227 168.343V142z" fill="#FFD796"/><path fill-rule="evenodd" clip-rule="evenodd" d="M222.541 177.125a.041.041 0 00-.041-.042.042.042 0 00-.042.042v.274l-.194-.194a.042.042 0 00-.059 0 .042.042 0 000 .059l.194.194h-.274a.042.042 0 00-.042.042c0 .023.019.042.042.042h.274l-.194.194a.042.042 0 000 .059.042.042 0 00.059 0l.194-.194v.274c0 .023.019.042.042.042a.041.041 0 00.041-.042v-.274l.194.194a.042.042 0 00.059 0 .04.04 0 000-.059l-.194-.194h.275a.041.041 0 00.041-.042.041.041 0 00-.041-.042h-.275l.194-.194a.04.04 0 000-.059.042.042 0 00-.059 0l-.194.194v-.274z" fill="#FFD796"/><path fill-rule="evenodd" clip-rule="evenodd" d="M222.541 177.125a.041.041 0 00-.041-.042.042.042 0 00-.042.042v.274l-.194-.194a.042.042 0 00-.059 0 .042.042 0 000 .059l.194.194h-.274a.042.042 0 00-.042.042c0 .023.019.042.042.042h.274l-.194.194a.042.042 0 000 .059.042.042 0 00.059 0l.194-.194v.274c0 .023.019.042.042.042a.041.041 0 00.041-.042v-.274l.194.194a.042.042 0 00.059 0 .04.04 0 000-.059l-.194-.194h.275a.041.041 0 00.041-.042.041.041 0 00-.041-.042h-.275l.194-.194a.04.04 0 000-.059.042.042 0 00-.059 0l-.194.194v-.274z" fill="#FFD796"/><path fill-rule="evenodd" clip-rule="evenodd" d="M222.541 177.125a.041.041 0 00-.041-.042.042.042 0 00-.042.042v.274l-.194-.194a.042.042 0 00-.059 0 .042.042 0 000 .059l.194.194h-.274a.042.042 0 00-.042.042c0 .023.019.042.042.042h.274l-.194.194a.042.042 0 000 .059.042.042 0 00.059 0l.194-.194v.274c0 .023.019.042.042.042a.041.041 0 00.041-.042v-.274l.194.194a.042.042 0 00.059 0 .04.04 0 000-.059l-.194-.194h.275a.041.041 0 00.041-.042.041.041 0 00-.041-.042h-.275l.194-.194a.04.04 0 000-.059.042.042 0 00-.059 0l-.194.194v-.274z" fill="#FFD796"/><path fill-rule="evenodd" clip-rule="evenodd" d="M222.541 177.125a.041.041 0 00-.041-.042.042.042 0 00-.042.042v.274l-.194-.194a.042.042 0 00-.059 0 .042.042 0 000 .059l.194.194h-.274a.042.042 0 00-.042.042c0 .023.019.042.042.042h.274l-.194.194a.042.042 0 000 .059.042.042 0 00.059 0l.194-.194v.274c0 .023.019.042.042.042a.041.041 0 00.041-.042v-.274l.194.194a.042.042 0 00.059 0 .04.04 0 000-.059l-.194-.194h.275a.041.041 0 00.041-.042.041.041 0 00-.041-.042h-.275l.194-.194a.04.04 0 000-.059.042.042 0 00-.059 0l-.194.194v-.274z" fill="#FFD796"/><path fill-rule="evenodd" clip-rule="evenodd" d="M222.541 177.125a.041.041 0 00-.041-.042.042.042 0 00-.042.042v.274l-.194-.194a.042.042 0 00-.059 0 .042.042 0 000 .059l.194.194h-.274a.042.042 0 00-.042.042c0 .023.019.042.042.042h.274l-.194.194a.042.042 0 000 .059.042.042 0 00.059 0l.194-.194v.274c0 .023.019.042.042.042a.041.041 0 00.041-.042v-.274l.194.194a.042.042 0 00.059 0 .04.04 0 000-.059l-.194-.194h.275a.041.041 0 00.041-.042.041.041 0 00-.041-.042h-.275l.194-.194a.04.04 0 000-.059.042.042 0 00-.059 0l-.194.194v-.274z" fill="#FFD796"/><path fill-rule="evenodd" clip-rule="evenodd" d="M259.409 200.455a1.817 1.817 0 011.778-.362c3.453 1.151 7.192 4.273 10.047 8.729 2.883 4.499 4.955 10.489 4.955 17.566 0 7.884-5.728 13.612-13.612 13.612-8.9 0-15.577-7.138-15.577-15.577 0-3.154.526-5.352 1.113-6.818a8.96 8.96 0 01.851-1.654 5.721 5.721 0 01.452-.59l.046-.05.02-.02.008-.009.004-.004.002-.002c.001 0 .002-.001 1.288 1.284l-1.286-1.285a1.819 1.819 0 012.294-.228c2.991 1.994 4.513 2.668 5.839 2.644.595-.011.975-.161 1.24-.347.277-.193.542-.504.772-.999.487-1.044.691-2.627.643-4.555-.081-3.22-.827-6.679-1.256-8.663-.08-.374-.15-.695-.201-.952a1.819 1.819 0 01.58-1.72zm-7.988 18.678c-.379 1.015-.785 2.703-.785 5.29 0 6.499 5.117 11.941 11.941 11.941 5.876 0 9.976-4.1 9.976-9.976 0-6.357-1.859-11.669-4.381-15.604-1.544-2.41-3.304-4.257-4.995-5.52.35 1.906.689 4.222.744 6.435.053 2.101-.136 4.367-.982 6.182-.435.934-1.07 1.805-1.985 2.444-.925.647-2.027.979-3.258 1.002-2.098.037-4.07-.84-6.275-2.194z" fill="#FF578C"/><defs><linearGradient id="paint0_linear" x1="66.807" y1="90.561" x2="199.977" y2="346.712" gradientUnits="userSpaceOnUse"><stop stop-color="#FFD796"/><stop offset="1" stop-color="#C1ECF4"/></linearGradient><filter id="filter0_f" x="0" y=".78" width="445.614" height="354.842" filterUnits="userSpaceOnUse" color-interpolation-filters="sRGB"><feFlood flood-opacity="0" result="BackgroundImageFix"/><feBlend in="SourceGraphic" in2="BackgroundImageFix" result="shape"/><feGaussianBlur stdDeviation="24" result="effect1_foregroundBlur"/></filter></defs></svg>