<svg width="446" height="356" fill="none" xmlns="http://www.w3.org/2000/svg"><g opacity=".3" filter="url(#filter0_f)"><ellipse cx="222.807" cy="178.201" rx="156" ry="87.64" transform="rotate(-17 222.807 178.201)" fill="url(#paint0_linear)"/></g><path fill-rule="evenodd" clip-rule="evenodd" d="M227 142a4 4 0 00-8 0v26.343l-18.627-18.627a4 4 0 00-5.657 5.657L213.343 174H187a4 4 0 000 8h26.343l-18.627 18.627a4 4 0 005.657 5.657L219 187.657V214a4 4 0 008 0v-26.343l18.627 18.627a4 4 0 005.657-5.657L232.657 182H259a4 4 0 000-8h-26.343l18.627-18.627a4 4 0 00-5.657-5.657L227 168.343V142z" fill="#FFD796"/><defs><linearGradient id="paint0_linear" x1="66.807" y1="90.561" x2="199.977" y2="346.712" gradientUnits="userSpaceOnUse"><stop stop-color="#FFD796"/><stop offset="1" stop-color="#C1ECF4"/></linearGradient><filter id="filter0_f" x="0" y=".78" width="445.614" height="354.842" filterUnits="userSpaceOnUse" color-interpolation-filters="sRGB"><feFlood flood-opacity="0" result="BackgroundImageFix"/><feBlend in="SourceGraphic" in2="BackgroundImageFix" result="shape"/><feGaussianBlur stdDeviation="24" result="effect1_foregroundBlur"/></filter></defs></svg>