<svg width="312" height="272" fill="none" xmlns="http://www.w3.org/2000/svg"><path opacity=".6" d="M309 129.955c0 32.769-17.016 62.177-43.983 82.252-22.825 16.989-52.775 27.293-85.574 27.293-71.556 0-129.56-49.044-129.56-109.545 0-38.629 72.499-26.955 108.22-46.46 20.224-11.043 19.079-58.642 44.95-58.642 34.125 0 41.559 6.713 64.699 24.946C293.129 69.798 309 98.31 309 129.955z" fill="#FFC8C1"/><path d="M54.41 103.827c.231-2.281.65-4.523 1.074-6.763.152-.807-.904-1.15-1.057-.342-.446 2.355-.87 4.709-1.114 7.105-.083.823 1.014.814 1.096 0z" fill="#fff"/><path d="M28.686 147.929s-1.575 10.674-1.86 19.843c-.139 4.443.657 17.523 1.312 20.796.658 3.274 1.825 13.053 2.134 15.597.313 2.568.493 3.657.493 3.657l4.925.386s.012-26.942.74-41.088c.327-6.37 1.515-6.012 1.667-6.611.238-.928 4.563 9.169 8.983 19.883 4.756 11.53 9.62 23.773 9.62 23.773l4.432-4.045s-16.305-49.239-14.499-55.785c1.805-6.547-17.947 3.594-17.947 3.594zM41.642 114.91l2.286.16 2.423-.43s2.973-1.02 3.154-1.072c.183-.054 1.463-.537 1.92-.965.458-.43 1.646-1.611 1.783-3.165.138-1.555.596-1.985-.593-2.36-1.19-.377-.687.053-1.509-.644-.823-.698-.823-1.448-.823-1.877 0-.43 3.2-2.681 3.292-5.149.092-2.466.87-.965-.092-3.861-.96-2.897.961-3.81.23-4.72-.732-.912-.687.162-1.052-1.663-.366-1.823.778-1.93-1.554-2.734-2.332-.805-2.9-1.257-3.236-1.395-.61-.25-.255-.09-2.13-1.647-1.874-1.554-2.087-1.517-2.955-.928-.87.59-2.15 2.844-3.2 2.682-1.053-.162-.733-1.02-2.836-.859-2.102.162-2.468 0-3.475 1.502-1.007 1.502-.777 3.004-1.554 4.451-.778 1.449-1.098 3.004-2.56 3.112-1.463.106-5.807-.056-7.27.053-1.463.108-1.692-.215-2.607 1.556-.915 1.77-1.462 1.93-1.188 4.023.273 2.09.822 2.305.503 3.108-.321.805-7.843-.127-8.345-.18-.503-.054-1.532-.891-2.766-.034-1.234.859-2.057 1.234-2.285 3.271-.23 2.038.228 1.449-.504 2.682-.731 1.234-1.829 1.234-2.514 2.36-.685 1.128-1.189 1.395-1.555 3.219-.365 1.824-.869 4.559-.502 5.362.365.806 1.6.269 2.285 2.361.686 2.091 0 3.485.55 4.936.547 1.446.183 1.071 2.102 1.823 1.92.749 3.338 3.217 3.52 3.593.184.374 3.521.108 3.887 2.414.365 2.307-.047 2.574 1.28 3.057 1.328.482 2.425 1.663 3.567 1.609 1.144-.054 3.887-1.717 4.07-2.842.183-1.128-.23-14.857 7.452-17.647 7.681-2.789 6.904-3.271 8.23-2.948 1.325.323 4.571-.214 4.571-.214z" fill="#7B7DA3"/><path d="M34.281 101.286c.03.399-.201.723-.314 1.978-.117 1.281-.028 1.823.11 2.414.136.59.64 1.716 1.143 2.574.503.858 1.415 2.191 2.13 2.95 1.005 1.068 1.253 1.178 2.26 1.394 1.005.214 1.412.022 1.92-.16.304-.112 1.159-.764 1.416-1.073.34-.412 2.727-3.978 2.864-4.353.136-.375 2.394-5.301 2.714-6.321.32-1.017.887-2.615.842-3.365-.046-.75-.391-4.3-.705-4.838-.669-1.156-2.543-3.094-3.96-2.934-1.418.16-3.963.605-4.91 1.539-.699.689-1.828 2.556-2.332 3.699-.33.754-1.05 2.252-1.05 2.252s.096-.637.074-.803c-.054-.386-.364-1.492-1.095-1.492-.732 0-.99.043-1.403.471-.411.43-.823.755-1.143 1.342-.078.142-.548 1.352-.685 1.823-.096.334-.212 1.044-.183 1.395.03.355.262 1.398.496 1.626.144.141.276.283.464.294.195.012.605.09.907-.191.096-.089.43-.366.44-.221z" fill="#FFC8C1"/><path d="M45.374 122.416c-.082.481-.82 4.621-.492 7.511.329 2.887 1.067 7.893 1.56 9.049.49 1.157-.33 3.852-.33 3.852l-13.46 2.598-5.745-3.754-1.149-17.908 5.911-2.118 13.705.77z" fill="#FF6697"/><path d="M44.964 123.667s5.745.288 8.7-2.214c2.954-2.503 6.714-6.492 7.878-8.376 1.702-2.759 3.814-7.877 4.186-11.456.358-3.442.526-9.382.492-10.976-.02-.964-3.68-.883-3.68-.883s-.472 3.546-.588 4.735c-.468 4.842-.093 6.054-1.734 9.135-1.642 3.08-4.668 7.038-6.965 7.904-2.297.866-11.724 3.149-11.724 3.149l-6.25-.454s-3.446 0-5.744 2.021c-2.298 2.023-5.484 4.698-6.967 9.257-1.882 5.79-2.55 6.839-1.482 12.519 1.066 5.679 2.297 7.036 3.934 8.167 1.486 1.029 4.597 2.6 7.14 2.791 2.544.193 1.598 1.134 6.484-.191 2.647-.718 3.221-2.275 3.221-2.275s-.486-3.27-.655-4.458c-.037-.246.634-1.548.634-1.548s-1.476.963-3.94.963c-2.461 0-4.673.794-7.054-1.227-2.382-2.023-3.205-1.854-2.712-6.283.493-4.428.738-6.641 2.874-8.664 2.133-2.021 2.298-2.31 2.544-2.502.247-.193 11.408.866 11.408.866zM31.223 209.115s2.222.209 2.959.134c.45-.044 1.595-.399 1.765-.468.171-.067.74 1.136.855 2.871.114 1.737.114 2.405.114 2.405l-2.391.068-.058-1.335s.74-.734-.624.533c-1.367 1.268-5.808 4.608-9.34 4.408-3.527-.201-2.275-1.536-1.763-2.004.512-.468 6.327-4.215 7.515-5.409 1.105-1.11.968-1.203.968-1.203z" fill="#FF6697"/><path d="M287.25 243.454c0 5.242-3.622 9.491-8.091 9.491h-73.897c-4.468 0-8.091-4.25-8.091-9.491V100.581c0-5.24 3.623-9.49 8.091-9.49h73.897c4.469 0 8.091 4.25 8.091 9.49v142.873z" fill="#FF9198"/><path d="M57.28 204.808l4.008-3.351s.243.286 1.059.947c.942.763 1.294 1.11 1.707 1.334.397.215-.056 2.405-.056 2.405l-1.709-.801s.4-.067.513 2.471c.114 2.538-1.253 5.809-1.935 7.28-.684 1.468-2.108 4.875-3.075 4.006a3.082 3.082 0 01-1.024-2.738c.113-.734.625-2.404.682-5.142.058-2.739-.17-6.411-.17-6.411zM42.256 98.893c-.929.264-.766 1.87-1.205 3.667-.436 1.797-2.297 1.468-.765 2.238s2.515.237 2.846-.514c.4-.912.218-3.336 0-4.107-.22-.77-.536-1.38-.876-1.284z" fill="#FF6697"/><path d="M37.221 103.001c1.209 0 2.188-1.149 2.188-2.566 0-1.418-.98-2.567-2.188-2.567-1.208 0-2.188 1.15-2.188 2.567 0 1.417.98 2.566 2.188 2.566zM45.77 107.013c-1.071-.659-1.482-2.212-.92-3.467.562-1.257 1.884-1.739 2.955-1.08" fill="#FF9198"/><path d="M37.003 109.916s-.96 3.377-1.098 3.915c-.137.535-.586.854-.038 1.873.548 1.019.45 1.076 1.547 1.291 1.097.215 2.012.375 2.697-.322.686-.697 1.28-1.556 1.234-2.092-.046-.535-.457-3.219-.457-3.219l-3.885-1.446zM41.893 145.328l.312.103s.863-.321 2.038-.606c1.176-.289 1.838-.094 2.392-.743.555-.652 4.65-3.708 3.52-5.45-1.13-1.741-2.586 1.712-3.52 1.9-.354.07-1.023.412-1.266.412-.244 0 .172-1.08.263-1.195.18-.233.872-.402.784-.793-.09-.389-.111-.934-.62-.752-.511.182-.822.493-1.176.961-.355.467-.82 1.066-1.574 1.326-.754.26-.887.311-1.153.443-.265.129 0 4.471 0 4.471" fill="#FFC8C1"/><path d="M94.084 212.855c.037.944.575 1.802.954 2.558.587 1.173 1.23 2.635 1.57 3.353.093.196.277.638.352.635.07-.003.248-.57.319-.753.341-.855 1.143-2.698 1.502-3.58.3-.738.66-1.604.628-2.486-.065-1.727-1.307-3.062-2.779-2.986-1.47.076-2.61 1.533-2.546 3.259zM75.091 191.616c.194.916.868 1.633 1.367 2.285.774 1.014 1.651 2.299 2.105 2.924.125.17.379.559.454.539.066-.019.143-.617.184-.812.19-.917.665-2.911.867-3.858.17-.792.376-1.726.196-2.583-.354-1.675-1.799-2.697-3.228-2.282-1.428.417-2.299 2.112-1.945 3.787zM80.306 210.947c.794.16 1.624-.276 2.335-.55 1.1-.421 2.455-.849 3.125-1.087.184-.067.59-.179.605-.27.011-.077-.424-.402-.56-.523-.64-.574-2.005-1.885-2.663-2.482-.55-.501-1.195-1.1-1.937-1.25-1.45-.293-2.83.847-3.08 2.551-.248 1.7.724 3.319 2.175 3.611zM97.038 239.695c.718.427 1.622.297 2.368.28 1.158-.022 2.56.038 3.261.044.192 0 .609.029.645-.051.03-.07-.304-.53-.403-.692-.469-.769-1.443-2.495-1.922-3.293-.4-.67-.866-1.464-1.536-1.862-1.314-.783-2.917-.168-3.584 1.37-.666 1.54-.142 3.421 1.171 4.204zM109.358 249.787c-.309.873-.131 1.919-.06 2.792.11 1.352.164 2.999.214 3.817.012.225.02.718.09.749.061.032.429-.395.559-.521.618-.608 2.01-1.878 2.651-2.499.539-.521 1.18-1.126 1.468-1.939.564-1.597-.08-3.424-1.439-4.086-1.36-.662-2.919.092-3.483 1.687z" fill="#DAA1A1"/><path d="M111.192 268.411c-3.305-34.171-19.793-65.099-45.076-82.72-.585-.408-1.114.66-.531 1.066 24.94 17.382 41.293 47.929 44.555 81.654.076.781 1.129.79 1.052 0z" fill="#385B95"/><path d="M77.51 193.012c.202 1.73.666 3.353 1.318 4.918.298.715 1.204.089.908-.623a17.132 17.132 0 01-1.212-4.623c-.092-.786-1.106-.45-1.014.328zM89.999 209.702c-2.843-1.728-6.14-2.171-9.302-2.206-.679-.007-.678 1.227 0 1.234 2.973.033 6.095.412 8.77 2.037.603.366 1.135-.699.532-1.065zM99.187 225.122c-1.08-3.366-1.833-6.842-2.06-10.436-.05-.789-1.102-.794-1.052 0 .233 3.704.982 7.292 2.097 10.765a.536.536 0 001.015-.329zM104.91 240.122c-1.873-1.558-4.041-2.538-6.27-3.133-.661-.177-.941 1.013-.28 1.189 2.149.574 4.212 1.507 6.019 3.009.555.462 1.08-.609.531-1.065zM110.986 252.493c-.942 1.842-1.475 3.889-1.861 5.977-.143.776.871 1.106 1.014.329.367-1.987.858-3.929 1.756-5.683.35-.685-.56-1.304-.909-.623z" fill="#385B95"/><path d="M109.585 51.042c.027.688.42 1.316.696 1.87.43.854.901 1.925 1.148 2.448.068.144.204.466.258.463.05 0 .179-.415.232-.55.249-.624.835-1.97 1.096-2.613.221-.54.483-1.173.461-1.818-.049-1.262-.956-2.237-2.03-2.181-1.075.054-1.907 1.12-1.861 2.38zM95.708 35.523c.142.669.634 1.195.999 1.67.565.74 1.206 1.68 1.537 2.136.091.125.278.408.332.394.048-.014.105-.452.134-.592.138-.671.485-2.127.634-2.82.125-.578.275-1.26.144-1.887-.259-1.223-1.315-1.97-2.359-1.667-1.043.305-1.68 1.54-1.421 2.766zM99.518 49.646c.58.117 1.186-.2 1.706-.4.804-.31 1.794-.622 2.283-.795.135-.048.431-.132.441-.197.009-.057-.309-.294-.408-.382-.469-.419-1.465-1.378-1.946-1.814-.402-.367-.874-.803-1.416-.913-1.059-.214-2.066.62-2.25 1.863-.181 1.243.53 2.426 1.59 2.638zM111.743 70.651c.525.313 1.185.218 1.73.205.846-.016 1.872.027 2.383.032.141 0 .445.021.472-.038.022-.05-.222-.387-.294-.505-.343-.561-1.055-1.823-1.404-2.405-.292-.49-.633-1.071-1.123-1.36-.96-.572-2.132-.123-2.619 1-.486 1.125-.103 2.5.855 3.071zM120.745 78.025c-.225.638-.096 1.402-.044 2.04.08.989.121 2.193.156 2.79.008.163.014.523.066.547.045.024.314-.288.408-.382.452-.442 1.468-1.372 1.939-1.824.393-.38.861-.823 1.071-1.418.413-1.167-.059-2.501-1.051-2.985-.993-.485-2.134.066-2.545 1.232z" fill="#DAA1A1"/><path d="M122.086 91.632c-2.456-25.008-14.448-47.503-32.935-60.438-.427-.299-.813.482-.388.78 18.237 12.76 30.131 34.977 32.554 59.66.056.57.825.575.769-.002z" fill="#385B95"/><path d="M97.475 36.544c.149 1.263.487 2.45.964 3.593.217.522.88.065.663-.456a12.494 12.494 0 01-.885-3.377c-.068-.574-.809-.329-.742.24zM106.601 48.736c-2.077-1.26-4.485-1.585-6.796-1.61-.496-.005-.496.896 0 .902 2.172.025 4.453.3 6.408 1.488.44.266.829-.512.388-.78zM113.314 60.005c-.791-2.46-1.34-4.998-1.505-7.626-.037-.576-.805-.58-.769 0 .17 2.707.718 5.329 1.533 7.866a.391.391 0 00.741-.24zM121.935 80.001c-.689 1.346-1.079 2.843-1.36 4.369-.104.566.637.808.741.24.268-1.453.626-2.872 1.283-4.153.255-.5-.41-.953-.664-.456z" fill="#385B95"/><path d="M143.752 32.82c-.038.987-.602 1.883-.995 2.672-.613 1.221-1.284 2.747-1.639 3.496-.097.206-.289.665-.367.662-.072-.002-.257-.596-.332-.786-.356-.893-1.193-2.816-1.566-3.733-.314-.77-.69-1.674-.656-2.594.067-1.8 1.364-3.194 2.898-3.116 1.534.078 2.723 1.602 2.657 3.4zM166.697 7.044c-.204.957-.907 1.705-1.427 2.387-.806 1.055-1.722 2.397-2.195 3.046-.131.18-.396.586-.474.563-.069-.02-.15-.644-.192-.845-.198-.959-.694-3.038-.905-4.023-.178-.83-.393-1.802-.204-2.696.368-1.747 1.876-2.814 3.367-2.379 1.49.432 2.398 2.201 2.03 3.947zM158.124 30.831c-.828.168-1.694-.286-2.434-.572-1.149-.442-2.564-.886-3.262-1.135-.192-.069-.616-.188-.63-.282-.013-.08.441-.42.584-.546.669-.597 2.091-1.965 2.777-2.588.575-.524 1.247-1.146 2.021-1.304 1.513-.303 2.949.888 3.212 2.662.259 1.773-.755 3.46-2.268 3.765zM140.671 60.819c-.75.445-1.692.31-2.471.294-1.208-.026-2.673.037-3.402.043-.2.002-.637.032-.673-.05-.031-.076.317-.556.422-.725.488-.801 1.505-2.603 2.002-3.434.418-.698.904-1.527 1.605-1.945 1.369-.815 3.041-.174 3.736 1.432.696 1.607.149 3.57-1.219 4.385z" fill="#DAA1A1"/><path d="M127.003 90.773c3.395-35.174 20.462-67.053 46.476-85.177.608-.423.056-1.536-.553-1.11-26.372 18.372-43.58 50.648-47.02 86.288-.08.823 1.019.814 1.097 0z" fill="#385B95"/><path d="M163.116 8.16c-.2 1.691-.627 3.288-1.264 4.823-.308.743.638 1.396.948.65.677-1.634 1.161-3.327 1.374-5.13.095-.813-.962-1.163-1.058-.343zM148.567 30.643c2.792-1.695 6.048-2.09 9.149-2.124.707-.008.708-1.296 0-1.287-3.299.036-6.737.499-9.702 2.3-.629.381-.074 1.492.553 1.11zM139.487 45.96c1.162-3.622 1.943-7.364 2.187-11.228.053-.83-1.045-.823-1.097 0-.237 3.75-1.022 7.374-2.149 10.886a.559.559 0 001.059.342zM133.013 62.379c1.885-1.568 4.037-2.541 6.28-3.142.69-.185.397-1.426-.292-1.242-2.325.624-4.587 1.647-6.542 3.273-.572.475-.025 1.592.554 1.111z" fill="#385B95"/><path d="M116.479 97.842l-1.361-3.232s-.883.91-1.363.905c-.481-.006-1.319-.745-1.578-.977-.259-.233-.359-.318-.783-.263-.424.055-.845.238-1.131.494-.288.254-.593 1.035-.695 1.642-.101.605-.247 1.189-.826 1.916-.579.728-.935 1.574-1.538 1.882-.602.307-.999.22-1.27.987-.273.766-.351.685-.241 1.443.039.276.079.332.11.787.033.458-.221.59-.118 1.161.178.99.058 1.228.627 1.28.57.054 1.079-.427 1.024-.836-.056-.407.03-1.524.132-1.785.101-.26 2.888-2.04 3.263-2.247.376-.207 1.205-.613 1.88-1.037.677-.425 3.868-2.12 3.868-2.12zM128.623 95.626l1.245-3.932s.884.912 1.365.905c.481-.005 1.32-.744 1.577-.976.259-.234.36-.32.784-.264.423.056.843.239 1.132.495.286.255.591 1.035.693 1.642.102.605.249 1.188.827 1.916.579.729.935 1.574 1.539 1.883.602.306.997.218 1.268.987.273.766.352.684.242 1.443-.04.276-.079.333-.11.786-.033.459.22.59.118 1.161-.179.991-.058 1.227-.627 1.28-.57.055-1.08-.428-1.024-.835.056-.408-.031-1.526-.132-1.785-.102-.261-2.887-2.04-3.264-2.247-.375-.208-1.204-.613-1.879-1.037-.676-.426-3.754-1.422-3.754-1.422zM120.483 32.742s.396-.597 1.644-1.1c1.675-.674 1.679-.696 2.924-.742 1.487-.054 2.261.49 3.602 1.558.244.193.378.451.538.648 1.16 1.426 1.037 2.026 1.174 3.843.2 2.668.401 3.24-.503 7.005-.902 3.765-.199 3.734-2.004 6.204-1.801 2.466-1.893 3.169-4.199 3.262-2.909.117-1.173.433-3.078-2.272-1.906-2.708-2.304-3.82-2.504-6.052-.201-2.238-.603-7.65.2-9.296.801-1.647 2.206-3.058 2.206-3.058z" fill="#FFC8C1"/><path d="M125.335 87.087c-1.178.85-10.634 7.917-10.634 7.917l1.446 3.005s19.629-7.295 20.625-7.85c.695-.388 1.981-1.687 2.525-2.962.543-1.276.366-3.528-.087-4.697-.453-1.17-3.725-5.513-4.812-6.47-1.086-.958-22.005-1.971-22.005-1.971s-.851-1.736-2.3 1.028c-1.452 2.764-5.316 5.924-5.044 9.54.273 3.614 1.254 5.122 3.338 6.607.797.57 5.981 1.489 6.797 1.808.816.318 13.776 2.658 13.776 2.658l1.633-4.466" fill="#FF6697"/><path d="M140.701 66.824c0 6.722-7.932 12.172-17.718 12.172-9.785 0-17.865-4.421-17.865-11.142 0-2.94 2.294-5.782 4.822-7.886 3.25-2.704 7.539-5.313 13.043-5.313 4.972 0 9.166 2.448 12.383 4.714 3.116 2.193 5.335 4.15 5.335 7.455z" fill="#BFEAF2"/><path d="M121.787 51.45l-.5 4.115s-.213 1.06.406 1.66c.713.688 1.31 1.024 2.22.638 1.429-.601 1.686-1.827 1.686-1.827l.099-5.175-3.911.589zM130.176 41.078c-.289 1.102-.198 2.11.199 2.252.397.144.952-.634 1.238-1.737.288-1.1.198-2.109-.199-2.252-.397-.142-.953.634-1.238 1.737z" fill="#FFC8C1"/><path d="M120.518 45.58c1.007 0 1.823-.959 1.823-2.14 0-1.182-.816-2.14-1.823-2.14-1.007 0-1.824.958-1.824 2.14 0 1.181.817 2.14 1.824 2.14zM127.501 45.58c1.008 0 1.824-.959 1.824-2.14 0-1.182-.816-2.14-1.824-2.14-1.007 0-1.823.958-1.823 2.14 0 1.181.816 2.14 1.823 2.14z" fill="#FF9198"/><path d="M123.163 43.382l-.052 1.372s-.039.079.013.495c.051.415.387.815.63.815.367 0 .539.08.696-.352.158-.432.196-.603.132-1.311-.067-.71-.329-1.805-.329-1.805l-.145-.585s-.209-.294-.406-.23c-.198.06-.434.57-.434.662.001.09-.105.94-.105.94z" fill="#385B95"/><path d="M115.806 39.268c.591.244 2.488.343 2.488.343s1.755.171 3.365-1.373c1.608-1.545 1.963-1.734 3.226-3.692.618-.96.857-1.802.857-1.802s.744-1.542.012-3.258c-.731-1.716-3.123-2.088-5.266-1.373-1.467.49-1.826 1.238-3.073 3.261-1.782 2.893-2.487 4.976-3.803 5.149-1.317.17 1.438 2.433 2.194 2.745z" fill="#FF6697"/><path d="M126.12 32.582s1.144-.246 2.021.782c.877 1.03.731 1.202 1.316 2.748.586 1.543.072 2.88.732 3.088.305.093.556-.896.732-1.202.398-.693.731-1.35.904-3.171.149-1.572.163-3.551-1.636-4.55-1.576-.876-2.866-1.222-3.852-.851-.525.198.243.963.109 1.857-.041.266-.087.415-.128.637a2.992 2.992 0 01-.198.662z" fill="#FF6697"/><path d="M117.932 40.756c.287 1.102.197 2.11-.2 2.253-.397.142-.951-.634-1.239-1.737-.286-1.102-.197-2.109.2-2.252.397-.144.953.634 1.239 1.736zM117.929 76.423s.511-.126.81-.29c.297-.162.583-.34.722-.55.14-.212.36-1.004.36-1.26 0-.257.038-2.802.097-2.99.06-.187.976-2.964 1.176-3.338.198-.373.716-1.401.975-1.657.259-.258.537-.584.656-.444.12.14.12.514.08.724-.041.21-.239.724-.298.98-.06.257-.757 2.078-.955 2.849-.2.77-.24.584-.299 1.33-.06.747-.099 1.12.099 1.05.2-.07.259-.21.339-.466.079-.257.199-1.075.199-1.308 0-.235.079-.42.179-.7.099-.28.218-.632.438-.56.218.07.358.07.378.397.019.328-.139 2.964-.139 3.245 0 .281-.16 1.587-.318 1.914-.16.327-.12.35-.359.607s-1.075 1.051-1.155 1.097c-.079.047-.973 1.127-1.395 1.236-.668.17-1.889.068-1.889.068l.299-1.934zM128.073 76.423s-.512-.126-.809-.29c-.299-.162-.584-.34-.723-.55-.139-.212-.359-1.004-.359-1.26 0-.257-.04-2.802-.099-2.99-.059-.187-.976-2.964-1.175-3.338-.199-.373-.716-1.401-.975-1.657-.259-.258-.538-.584-.657-.444-.119.14-.119.514-.08.724.04.21.239.724.298.98.06.257.758 2.078.956 2.849.199.77.239.584.3 1.33.059.747.097 1.12-.101 1.05-.199-.07-.259-.21-.338-.466-.081-.257-.199-1.075-.199-1.308 0-.235-.08-.42-.179-.7-.1-.28-.22-.632-.439-.56-.219.07-.358.07-.378.397-.02.328.14 2.964.14 3.245 0 .281.159 1.587.318 1.914.16.327.119.35.358.607s1.075 1.051 1.155 1.097c.079.047.972 1.127 1.395 1.236.669.17 1.889.068 1.889.068l-.298-1.934z" fill="#FFC8C1"/><path d="M118.097 76.269c-2.936-2.453-7.117-7.955-3.015-11.558.167-.147.004-.483-.166-.333-4.314 3.79-.172 9.56 3.015 12.225.173.144.337-.19.166-.334z" fill="#fff"/><path d="M117.904 76.5a10.58 10.58 0 01-.324 1.75c-.065.237.253.338.318.102a11.37 11.37 0 00.335-1.852c.024-.247-.305-.243-.329 0zM128.139 76.41c3.188-2.664 7.329-8.436 3.014-12.226-.169-.149-.333.187-.165.333 4.102 3.604-.079 9.106-3.015 11.56-.171.143-.007.477.166.332z" fill="#fff"/><path d="M127.835 76.307c.064.63.17 1.247.336 1.851.065.236.383.135.317-.102a10.667 10.667 0 01-.324-1.748c-.025-.245-.354-.247-.329 0zM115.356 94.216c4.142-2.083 8.376-4.88 11.745-8.423.158-.166-.075-.438-.232-.273-3.341 3.514-7.569 6.297-11.678 8.363-.195.098-.027.43.165.333z" fill="#fff"/><path d="M123.154 88.977c-2.609-.875-4.919-2.187-7.406-3.396-.195-.094-.28.278-.087.373 2.494 1.212 4.79 2.517 7.405 3.396.205.068.291-.304.088-.373zM41.828 140.703c-3.413.059-7.014-.16-10.109-2.008-3.719-2.221-3.836-8.794-.753-11.698.166-.156-.069-.427-.232-.273-2.754 2.594-2.94 7.384-.923 10.641 2.389 3.856 8.446 3.786 12.018 3.724.211-.005.212-.39 0-.386z" fill="#fff"/><path d="M41.701 140.937c.04 1.886-.232 3.755.006 5.634.031.245.348.141.318-.102-.233-1.843.045-3.683.005-5.532-.005-.248-.334-.249-.329 0z" fill="#fff"/><path d="M62.61 88.928l3.098.66 1.055-2.393.563-2.725s.775-3.467.283-4.54c-.494-1.075-.494-1.817-1.83-1.075-1.338.744-1.9 1.487-2.042 3.303-.14 1.816-.422 2.724-.422 2.724s-.422.744-.422.414c0-.331-.282-2.149-.562-3.056-.282-.909-.634-1.321-1.057-.413-.422.91-.07 1.074.07 1.983.141.907.282 2.063.423 2.56.14.495.844 2.558.844 2.558z" fill="#FFC8C1"/><path d="M119.006 237.975l31.495-1.944 9.161 23.948 15.092.409 5.672 2.865-51.038 1.844-10.382-27.122z" fill="#385B95"/><path d="M171.12 254.775s-1.961-.068-2.603-.2c-.366-.076-1.062-.434-1.432-.486-.749-.107-2.328-.106-3.013.264-.503.273-1.461.998-1.885 1.417-.546.538-1.793 1.859-1.769 2.694.012.415.294 1.435.562 1.706.232.239.914.57 1.246.548.444-.029 1.31-.425 1.657-.75.429-.403 1.048-1.362 1.314-1.885.247-.489.852-1.999 1.249-1.74.347.225-.486 1.677-.486 1.677s-.599 1.144-.607 1.549c-.005.285.326.88.566.928.32.063.877-.565 1.055-.883.315-.567.724-2.352.941-2.475.757-.429 3.353-.264 3.353-.264l-.148-2.1z" fill="#FFC8C1"/><path d="M184.274 237.672s-2.298 9.474-5.344 12.752c-3.044 3.278-6.336 4.155-7.765 3.864-1.429-.292.31 3.424.31 3.424l8.45.51 16.588-6.776.559-11.952-1.614-5.395-11.184 3.573z" fill="#FFD594"/><path d="M195.464 233.557s9.903-3.705 12.732-3.886c15.404-.988 19.095 4.418 19.095 4.418l2.087 23.989s-19.385.989-24.544-1.87c-3.608-2-8.794-13.081-8.794-13.081l-.576-9.57z" fill="#FFD594"/><path d="M257.933 227.86l3.605-1.352s-.784-1.427-.689-2.113c.093-.686 1.015-1.75 1.303-2.075.288-.328.396-.456.416-1.071.019-.616-.093-1.249-.306-1.709-.212-.455-.967-1.034-1.578-1.291-.61-.256-1.187-.572-1.837-1.532-.65-.96-1.463-1.625-1.672-2.542-.207-.915-.045-1.467-.792-1.994-.745-.529-.646-.628-1.454-.608-.294.006-.36.05-.836.014-.482-.038-.573-.424-1.184-.382-1.062.072-1.285-.141-1.446.662-.16.804.247 1.619.68 1.615.434-.004 1.579.323 1.83.516.252.192 1.59 4.498 1.735 5.075.147.573.416 1.833.733 2.875.317 1.041 1.492 5.912 1.492 5.912zM276.166 232.683l-3.354-2.994s1.178-.857 1.336-1.494c.16-.64-.264-2.003-.4-2.423-.136-.422-.183-.583.016-1.125.199-.543.519-1.035.863-1.328.343-.293 1.198-.429 1.816-.356.618.071 1.226.077 2.125-.44.898-.516 1.834-.698 2.335-1.39.501-.691.553-1.246 1.383-1.342.831-.098.778-.231 1.471.176.252.147.293.218.716.414.431.2.646-.09 1.158.242.892.575 1.161.496 1.017 1.268-.142.772-.782 1.282-1.153 1.069-.374-.215-1.478-.481-1.763-.436-.284.044-2.948 3.121-3.276 3.548-.328.426-1.002 1.385-1.642 2.131-.637.749-2.648 4.48-2.648 4.48z" fill="#FFC8C1"/><path d="M193.321 239.697c.813-.77 1.028-1.968 1.038-3.138.007-.682-.893-.681-.899 0-.009.914-.14 1.789-.776 2.391-.452.428.189 1.17.637.747z" fill="#81167B"/><path d="M229.739 258.031s11.837 1.883 15.806 2.229c2.069.182 6.234.211 8.302 0 2.263-.23 6.721-1.377 8.903-2.112 1.528-.514 4.5-1.982 5.802-3.05.7-.575 1.833-2.215 2.101-3.168.353-1.258-.083-3.983-.3-5.28-.229-1.366-1.501-5.281-1.501-5.281l-5.702-15.372-6.201 2.112s1.137 4.22 1.499 5.633c.354 1.37 1.024 4.122 1.302 5.514.131.657.386 2.337-.1 2.699-3.132 2.337-10.425-4.654-13.705-6.688-1.399-.868-4.472-1.877-6.002-2.347-1.197-.367-3.664-.826-4.901-.821-1.517.007-4.555.523-6.002 1.057-.417.154-1.601.82-1.601.82l2.3 24.055z" fill="#7B7DA3"/><path d="M273.154 228.812l-6.003 12.205 2.401 9.505s3.578-6.832 4.502-9.271c.779-2.06 2.401-8.567 2.401-8.567l-3.301-3.872z" fill="#7B7DA3"/><path d="M188.385 223.932c-.829-.301-2.653-.547-3.466-.192-.623.271-1.928 2.146-1.928 2.146s-1.051 2.304-1.326 3.111c-.305.901-.729 2.811-.72 3.778.01 1.128.693 3.31 1.144 4.306.392.863 1.574 2.301 2.231 2.905.575.53 2.196 2.332 2.846 2.727.956.576 2.709.621 3.783.582.779-.028 2.193-1.1 2.738-1.755.886-1.061 1.756-3.988 2.048-5.434.22-1.098.14-3.436-.156-4.509-.441-1.594-2.391-4.231-3.479-5.317-.804-.802-2.707-1.984-3.715-2.348z" fill="#FFC8C1"/><path d="M192.124 231.714c.219-.226.058-1.092.261-1.338.168-.202.742-.206.958-.084.326.183.911.779 1.045 1.171.145.429.308 1.463.086 1.842-.176.3-.821.577-1.131.586-.178.005-.583-.329-.696-.168-.246.349.576 1.347.957 1.423.559.112 1.555-.91 1.914-1.423.23-.326.651-1.029.784-1.422.297-.877.675-2.741.696-3.683.027-1.136-1.096-5.407-1.096-5.407l-4.3-1.624-5.135-.669s-3.813 1.907-4.701 3.098c-.581.779-1.177 2.824-1.305 3.848-.138 1.098-.086 4.437-.086 4.437s2.101-1.074 2.762-1.581c.622-.478 1.957-1.629 2.374-2.353.256-.447.089-1.736.435-2.093.178-.186.768-.176.957 0 .614.572.88 2.575 1.305 3.348.374.676 1.434 1.849 2.089 2.092.435.162 1.486.357 1.827 0z" fill="#FFB196"/><path d="M186.093 223.508s-2.669-3.932-2.996-5.524c-.269-1.307-.102-4.164.427-5.357.478-1.076 1.734-.561 2.589-1.181 1.775-1.289 1.295-3.291 3.183-4.337.485-.268 2.02-.12 3.252 1.326 1.917 2.247 4.787-.263 5.135 1.204.514 2.169 2.824 2.653 2.539 5.5-.284 2.845-2.091 1.257-2.471 2.451-.281.881 3.526 3.251-.102 5.822-3.396 2.404-3.879-.489-5.306-.482-1.561.007-6.25.578-6.25.578z" fill="#FFB196"/><path d="M185.2 233.378c.701.199.578 1.412.911 2.769.329 1.359 1.735 1.11.577 1.692-1.157.582-1.9.18-2.149-.387-.304-.691-.165-2.522 0-3.105.165-.582.403-1.042.661-.969z" fill="#FF6697"/><path d="M189.355 237.129c1.026 0 1.857-.976 1.857-2.179 0-1.203-.831-2.178-1.857-2.178-1.025 0-1.857.975-1.857 2.178 0 1.203.832 2.179 1.857 2.179z" fill="#FF9198"/><path d="M267.667 237.707c1.119 4.557 2.943 8.88 3.242 13.667.034.535.747.539.714 0-.304-4.868-2.129-9.254-3.267-13.89-.128-.517-.817-.296-.689.223zM205.397 256.517c-5.483-4.14-12.08-4.536-17.982-7.479-.419-.208-.783.513-.36.724 5.895 2.938 12.509 3.345 17.982 7.479.388.293.745-.432.36-.724z" fill="#fff"/><path d="M181.354 255.454l.374 4.081s3.989.104 5.317.077c2.383-.047 2.381-.134 3.426-.167 3.35-.106 9.274-.129 13.126-3.19 3.852-3.062 6.46-5.83 6.896-7.798.436-1.968 1.926-4.736 1.367-6.121-.56-1.385-1.491-4.082-1.491-4.082l-15.284 4.227s.062 2.844-.993 4.885c-1.057 2.039-3.604 3.642-4.287 4.153-.686.51-8.451 3.935-8.451 3.935z" fill="#FFD594"/><path d="M184.798 254.088a5.202 5.202 0 01-.06.176c-.086.256.132.532.345.53.584-.006.827-.71.974-1.265.12-.454-.46-.741-.652-.323-.182.397-.47.743-.685 1.119-.14.247.042.665.308.63.617-.081 1.21-1.206 1.603-1.687l-.561-.507c-.356.607-.527 1.178-.701 1.884-.095.387.358.733.596.408.561-.768.95-1.459 1.233-2.417.132-.448-.474-.747-.652-.323-.319.758-.539 1.543-.797 2.332-.141.431.352.647.596.408.752-.735 1.079-1.179 1.33-2.305.101-.452-.457-.747-.652-.322a14.69 14.69 0 00-.702 1.883c-.127.417.352.675.596.408.541-.589.945-1.097 1.294-1.869l-.652-.323c-.148.489-.252.99-.441 1.463-.175.441.243.812.561.507a8.682 8.682 0 001.482-1.872c.233-.386-.309-.879-.56-.506-.281.415-.392.969-.626 1.423-.176.341.19.829.488.573.5-.428.957-.902 1.403-1.405l-.56-.507c-.306.484-.64.929-.99 1.367-.277.346.074.896.432.658.71-.473 1.313-.937 1.879-1.629.279-.34-.078-.904-.432-.658-1.347.941-2.646 1.889-4.196 2.302-.386.104-.306.884.095.823a28.911 28.911 0 002.378-.461l-.275-.765c-.599.308-1.194.611-1.816.85l.275.765c.398-.239.77-.488 1.141-.782.319-.253.127-.925-.275-.765-1.877.747-3.794 1.311-5.709 1.897l.19.807a6.58 6.58 0 01.666-.222l-.347-.7c-.128.178-.33.191-.509.227l.347.7c.519-.533 1.067-.948 1.64-1.386.322-.245.115-.957-.275-.765-.393.194-.417.192-.75.489l.432.657c.674-.639 1.385-1.181 2.116-1.719l-.432-.658c-.352.437-.74.824-1.165 1.162l.432.657c.599-.565 1.21-1.109 1.809-1.674l-.561-.507c-.394.645-.742 1.316-1.182 1.925-.225.309-.017.81.347.7.493-.151.954-.34 1.428-.559l-.275-.765c-.588.455-1.172.872-1.809 1.227-.395.221-.092.831.275.765a14.602 14.602 0 001.809-.446c.455-.144.253-.885-.19-.808-1.012.178-2.035.143-3.045.335l.347.7c.784-.836 1.516-1.696 2.403-2.39.38-.298.024-1.022-.361-.723-.571.447-1.141.894-1.713 1.339l.432.658c.539-.675 1.043-1.377 1.619-2.01l-.504-.591a36.794 36.794 0 01-1.619 1.786l.504.592c.962-1 1.949-1.959 2.951-2.903l-.561-.507a3.575 3.575 0 01-.381.67c-.247.379.294.859.56.507.33-.435.623-.903.953-1.338l-.56-.507c-.353.594-.681 1.203-1.048 1.785-.256.407.273.794.561.507.416-.415.86-.764 1.237-1.227l-.597-.185c.056.355-.388.633-.535.904-.246.458.371.877.616.423.379-.703.767-.524.608-1.55-.049-.313-.423-.399-.597-.185-.376.459-.824.816-1.237 1.227l.56.507c.367-.582.695-1.192 1.048-1.785.231-.391-.293-.86-.561-.507-.329.434-.623.903-.952 1.338l.56.507c.149-.206.276-.429.381-.67.221-.436-.26-.789-.56-.506a82.277 82.277 0 00-2.95 2.902c-.346.359.159.944.504.591a36.265 36.265 0 001.618-1.786c.328-.382-.169-.96-.504-.591-.575.632-1.08 1.333-1.618 2.009-.269.336.084.93.432.657l1.713-1.339-.36-.723c-.934.73-1.718 1.638-2.547 2.52-.29.309.025.761.347.7 1.01-.191 2.035-.158 3.046-.334l-.19-.808c-.599.189-1.194.335-1.808.446l.275.765a14.75 14.75 0 001.808-1.227c.321-.247.12-.946-.275-.765-.474.218-.935.408-1.428.559l.347.699c.48-.662.864-1.388 1.295-2.094.255-.417-.271-.781-.56-.506-.599.564-1.211 1.108-1.809 1.674-.315.298.102.929.432.657.48-.395.889-.809 1.309-1.293.288-.33-.085-.913-.432-.657-.783.577-1.542 1.169-2.26 1.851-.313.298.11.944.432.657l.58-.405-.275-.765c-.623.475-1.226.942-1.785 1.517-.294.302.028.764.348.7.323-.066.611-.145.823-.444.226-.318.017-.797-.347-.699a7.043 7.043 0 00-.667.222c-.435.166-.257.944.19.808 1.916-.586 3.832-1.151 5.709-1.896l-.275-.765a10.62 10.62 0 01-1.141.781c-.361.216-.109.913.275.765.682-.264 1.329-.596 1.987-.935.39-.2.098-.855-.275-.765-.729.177-1.449.318-2.188.432l.095.822c1.611-.43 2.96-1.405 4.366-2.387l-.432-.657c-.516.63-1.093 1.07-1.735 1.498l.432.657c.392-.49.76-.997 1.102-1.536.249-.394-.279-.824-.56-.507-.404.453-.807.885-1.26 1.273l.489.573c.196-.381.282-.911.514-1.255l-.56-.507a7.592 7.592 0 01-1.371 1.703l.56.507c.215-.54.343-1.102.512-1.663.136-.45-.464-.738-.652-.323-.308.684-.705 1.18-1.181 1.7l.596.407a8.29 8.29 0 01.63-1.684l-.652-.322c-.21.946-.542 1.344-1.145 1.935.198.135.397.272.597.407.235-.72.432-1.437.724-2.132l-.652-.322c-.246.833-.569 1.39-1.048 2.047l.596.407c.151-.613.319-1.157.63-1.684.233-.397-.284-.847-.561-.507-.133.163-.939 1.42-1.098 1.442l.308.629c.215-.376.502-.721.685-1.119l-.652-.323-.287.651.344.529.06-.176c.169-.5-.522-.715-.69-.221z" fill="#fff"/><path d="M187.415 252.663c.291-.243.536-.597.857-.781l-.488-.573c-.292.781-.454 1.524-.991 2.147-.178.206-.113.644.157.7.617.129 1.049-.047 1.607-.377l-.488-.573c-.122.207-.239.415-.443.521l.36.723c.452-.294.911-.539 1.333-.893l-.432-.658c-.323.404-.627.825-.953 1.226-.289.356.074.863.432.658 1.106-.634 2.052-1.517 2.832-2.632.202-.288.072-.685-.252-.714-1.422-.129-2.813-.427-4.006-1.394l-.181.78c.966-.018 1.762.526 2.579 1.059v-.723c-.268.159-.535.315-.768.54-.147.104-.146.134.004.088-.161-.107-.416-.231-.547-.372l-.158.699c-.208.056.183.11.283.151.198.079.418.155.597.286l-.073-.658c.126-.184.488-.125-.094-.118-.212.003-.425.015-.637.021-.532.015-.307-.569-.258-1.055.035-.352-.322-.473-.537-.361-.342.176-.658.553-.928.845l.504.591c.482-.639.561-.817 1.258-.388.584.359 1.148.799 1.662 1.281l.072-.657c-.318.258-.632.525-.951.781l.36.723c.327-.282.631-.592.955-.878l-.489-.572a.647.647 0 01-.076.159h.616c-.428-.921 1.312-.661 1.573-.563.44.165.626-.644.19-.807-1.073-.402-3.225-.027-2.379 1.792.134.289.475.252.617 0a.614.614 0 00.076-.159c.132-.334-.17-.853-.488-.573-.323.286-.628.597-.954.878-.364.314-.024 1.032.36.723.319-.257.632-.523.951-.781.171-.138.264-.476.072-.657a11.657 11.657 0 00-2.259-1.679c-.81-.456-1.134.074-1.67.787-.305.403.164.959.504.591.235-.255.489-.562.784-.714l-.537-.361c-.058.577-.216 1.517.38 1.797.352.164 1.585.301 1.828-.053.145-.213.138-.503-.072-.658-.336-.246-1.027-.63-1.43-.52-.256.07-.351.49-.158.699.951 1.024 1.238.432 2.177-.124.239-.142.224-.576 0-.723-.94-.613-1.839-1.194-2.94-1.173-.372.007-.465.549-.18.78 1.294 1.049 2.825 1.369 4.366 1.508l-.252-.715c-.744 1.063-1.634 1.897-2.688 2.501l.432.657c.326-.4.63-.822.952-1.226.267-.333-.09-.944-.432-.657-.422.355-.88.599-1.332.893-.41.268-.05.939.36.724.31-.163.51-.501.698-.821.219-.371-.193-.747-.488-.573-.318.279-.671.377-1.057.293l.157.699c.603-.699.773-1.433 1.104-2.316.143-.385-.151-.766-.488-.573-.355.203-.533.511-.858.782-.37.307-.014 1.033.363.72z" fill="#fff"/><path d="M189.224 251.606c-2.266-1.447-4.091.664-5.76 2.298l.504.592c.933-.985 1.868-1.96 2.877-2.837.363-.316.056-.978-.36-.723a1.92 1.92 0 00-.699.819l.652.323c.15-.553.551-.858.859-1.267.237-.315.01-.794-.347-.7-.291.077-.464.217-.593.529l.652.323c.085-.285.095-.372.107-.67l-.356.418c.398.025.757.102 1.142.208.447.122.638-.686.189-.808a6.534 6.534 0 00-1.331-.237c-.201-.013-.348.2-.357.418l-.082.447c-.133.447.476.748.652.323l.166-.144-.347-.7c-.414.552-.848.916-1.043 1.636-.122.452.465.743.653.323.093-.21.264-.41.443-.519l-.36-.723c-1.058.92-2.043 1.934-3.021 2.967-.346.365.156.932.504.591 1.375-1.345 2.987-3.386 4.895-2.166.404.26.764-.463.361-.721z" fill="#fff"/><path d="M187.235 250.934c.077.006.104.056.132.14.167.496.858.28.689-.222-.152-.446-.4-.727-.821-.755-.46-.03-.458.807 0 .837zM180.575 256.809c-1.588-.303-3.398.309-4.946.67-.455.106-.257.897.189.808a39.905 39.905 0 014.757-.656c.178-.013.379-.181.357-.418l-.095-1.005-.609.296.098.486c-.061.525.531.744.689.222.134-.444.265-.887.38-1.339l-.7-.111c.021.454-.022.885 0 1.339.025.535.713.543.713 0v-.893l-.701.111.178 1.229.609-.296c-.158-.187-.317-.372-.476-.558-.134-.157-.372-.168-.504 0l-.132.167a.488.488 0 00-.056.507c.046.106.171.283.191.402l.439-.515c-.665-.122-1.331-.225-1.997-.334l-.095.822c1.426 0 2.921-1.215 3.962-2.244.312-.308-.093-.909-.432-.657-.434.323-.598.49-1.046.892l.432.658c.499-.495.964-1.022 1.427-1.562.281-.326-.103-.952-.432-.657-.419.375-.828.758-1.214 1.181-.293.32.1.937.432.657.505-.425 1.054-.829 1.499-1.294.351-.365-.153-.921-.504-.592-2.148 2.011-4.768 2.715-7.158 4.177-.408.249-.047.971.36.723 2.463-1.506 5.089-2.236 7.302-4.308l-.504-.591c-.12.126-.986.853-1.354 1.163l.432.657a14.69 14.69 0 011.07-1.049l-.432-.658c-.463.54-.929 1.068-1.428 1.562-.307.305.111.946.433.657.343-.308.679-.62 1.046-.892l-.432-.658c-.897.887-2.227 1.999-3.458 1.999-.391 0-.502.756-.095.822.666.108 1.333.213 1.997.334.276.05.495-.181.439-.515-.024-.145-.044-.443-.187-.263h-.504l.476.558c.204.238.643.082.609-.296a10.71 10.71 0 00-.203-1.451c-.091-.468-.701-.355-.701.111v.893h.714c-.022-.453.021-.885 0-1.339-.022-.468-.583-.574-.701-.111-.115.452-.246.895-.38 1.339l.688.223c.062-.537.004-.872-.282-1.301-.186-.28-.642-.053-.609.296l.095 1.005.356-.418c-1.66.129-3.305.358-4.946.685l.19.808c1.42-.331 3.117-.947 4.567-.671.448.086.641-.721.187-.807z" fill="#fff"/><path d="M181.936 257.438c3.309-1.127 7.31-1.084 9.624-4.602 1.068-1.625 1.693-3.477 2.392-5.343 1.193-3.185 3.678-5.243 6.152-6.944.397-.272.037-.996-.36-.723-3.316 2.28-5.516 4.807-7.051 8.976-.931 2.53-2.075 4.35-4.171 5.757-1.993 1.339-4.601 1.332-6.776 2.072-.441.15-.253.958.19.807z" fill="#fff"/><path d="M181.863 256.5l-.175-.034.25.515a.785.785 0 01.184-.308l-.505-.592a3.45 3.45 0 01-.261.29l.504.591c.549-.724 1.177-1.388 1.913-1.839.408-.25.048-.972-.36-.723-.784.481-1.472 1.198-2.057 1.97-.309.406.155.939.504.591a3.43 3.43 0 00.262-.289c.315-.395-.167-.958-.505-.591-.179.193-.279.414-.368.677-.067.196.072.481.25.515l.175.034c.449.09.642-.716.189-.807zM187.177 250.274c1.085.382 1.936 1.299 3.108 1.374.279.017.432-.366.308-.63a.665.665 0 01-.044-.103l-.489.573c.303.153.537.342.755.632.086.115.227.137.347.108.355-.088.617-.308.53-.769-.093-.492-.697-.64-.938-.984l-.347.699c.401.185.791.344 1.216.425.45.086.643-.721.19-.808-.426-.081-.816-.24-1.216-.424-.369-.17-.546.414-.347.7.08.115.189.197.292.281l.245.191c.16.218.222.179.184-.119l.348.108a2.416 2.416 0 00-.899-.763c-.338-.17-.638.174-.488.573.012.036.027.07.044.102l.308-.63c-1.073-.069-1.915-.99-2.918-1.344-.442-.156-.629.653-.189.808z" fill="#fff"/><path d="M187.562 249.761c.78.074 1.301.825 2.026 1.073.798.274 1.646.256 2.456.475.447.122.638-.686.189-.808-.939-.254-1.977-.161-2.842-.695-.62-.384-1.112-.816-1.83-.883-.458-.042-.455.795.001.838z" fill="#fff"/><path d="M181.494 235.461l.576 1.562.793 1.297c.687-.421.952-1.419.591-2.224-.358-.798-1.245-1.074-1.93-.67a.148.148 0 01-.021.013" fill="#FF9198"/><path d="M181.613 256.123c.951-.782 1.902-1.564 2.687-2.577.309-.398-.194-.992-.504-.591-.746.96-1.64 1.703-2.543 2.445-.374.307-.018 1.033.36.723z" fill="#fff"/><path d="M171.633 258.021c3.259.415 6.164-.319 9.06-2.093 2.331-1.43 4.253-5.424 6.78-6.013.452-.105.26-.912-.189-.808-1.825.425-3.266 2.705-4.544 4.123-2.944 3.265-7.179 4.454-11.107 3.954-.457-.059-.452.779 0 .837z" fill="#fff"/><path d="M184.871 253.101c.456-.629.985-1.168 1.546-1.665.362-.321.007-1.049-.36-.723-.61.54-1.194 1.11-1.69 1.796-.296.408.207 1.004.504.592z" fill="#fff"/><path d="M183.824 253.713c.931-.882 1.788-1.865 2.735-2.724.358-.325.004-1.053-.36-.723-.996.902-1.902 1.928-2.879 2.856-.357.339.151.929.504.591z" fill="#fff"/><path d="M185.355 252.178c.499-1.055 1.407-2.096 2.451-2.318.452-.097.26-.903-.19-.808-1.213.26-2.296 1.475-2.877 2.704-.224.472.393.894.616.422z" fill="#fff"/><path d="M186.321 250.375c.397-.345.848-.544 1.343-.556.46-.012.461-.848 0-.837a2.683 2.683 0 00-1.703.67c-.365.318-.01 1.045.36.723z" fill="#fff"/><path d="M185.117 251.9c.736-1.208 1.503-1.81 2.769-1.425.928.283 1.794.787 2.728 1.058.447.129.636-.677.19-.808-1.193-.346-2.302-1.05-3.525-1.234-1.231-.185-2.129.921-2.778 1.986-.268.44.351.857.616.423zM191.36 251.336l-.429.502c-.327.381.179.973.504.591l.429-.502c.326-.381-.179-.973-.504-.591zM181.374 257.852c.316-.259.633-.464 1.01-.57.447-.128.257-.934-.19-.808-.432.124-.817.357-1.18.655-.374.307-.018 1.034.36.723zM171.157 257.91c.14.01.231.092.319.212.302.41.804-.185.504-.591a1.083 1.083 0 00-.823-.458c-.46-.034-.457.804 0 .837z" fill="#fff"/><path d="M186.056 249.596c-.883.631-1.274 1.775-1.592 2.874-.147.513.542.731.689.223.254-.88.553-1.866 1.263-2.374.393-.28.034-1.004-.36-.723z" fill="#fff"/><path d="M181.392 257.457s-1.961-.069-2.603-.201c-.368-.076-1.061-.434-1.431-.487-.75-.107-2.328-.106-3.014.266-.503.272-1.462.997-1.885 1.416-.546.538-1.794 1.858-1.77 2.694.012.415.295 1.435.562 1.707.233.238.915.569 1.247.547.443-.03 1.31-.425 1.658-.751.427-.403 1.046-1.362 1.313-1.885.248-.488.85-1.997 1.249-1.738.346.223-.487 1.676-.487 1.676s-.599 1.143-.606 1.55c-.005.284.325.879.565.927.32.063.878-.565 1.056-.883.316-.567.724-2.353.94-2.475.757-.429 3.354-.266 3.354-.266l-.148-2.097z" fill="#FFC8C1"/><path d="M190.885 75.047c.257.563.854.775 1.333.474l4.148-2.6c.479-.3.66-1 .404-1.562l-5.409-11.874c-.256-.563-.853-.776-1.333-.475l-4.146 2.598c-.479.301-.661 1.002-.405 1.565l5.408 11.874z" fill="#BFEAF2"/><path opacity=".4" d="M190.485 72.463c.201.44.675.601 1.061.359l3.333-2.09c.386-.242.535-.795.336-1.235l-4.233-9.29c-.2-.441-.674-.602-1.061-.36l-3.332 2.088c-.387.243-.537.796-.336 1.236l4.232 9.292z" fill="#385B95"/><path d="M230.108 77.59s-.564-1.303 1.393 2.86c1.08 2.295 1.628 5.275 1.213 7.585-1.017 5.648-1.493 7.171-4.041 8.375-2.96 1.399-6.119 1.399-11.99 1.264-7.059-.16-14.199-7.483-18.232-4.941-.281.177-.845 1.236-.824 1.611.463 8.213 7.469 33.041 7.469 33.041l-6.599 3.002-5.128-13.73-3.227-9.344s-3.913-10.15-5.218-13.05c-.343-.763-2.46-7.176-2.326-9.389.135-2.212.412-2.638.673-3.476.485-1.554 1.721-2.694 2.56-3.162 5.276-2.939 23.307-1.896 23.307-1.896l20.97 1.25z" fill="#385B95"/><path d="M199.027 130.365s2.656-.513 3.5-.85c.517-.206 1.77-1.011 1.952-1.149.184-.135 1.156.583 1.719 2.577.563 1.996.51 1.83.669 2.533.056.253.291 1.754.291 1.754l-3.162 1.248s-1.503.399-2.79 2.349c-1.287 1.952-3.734 2.946-7.918 3.913-4.185.966-2.965-2.997-2.481-3.719.485-.723 6.286-5.115 7.384-6.92 1.019-1.674.836-1.736.836-1.736zM221.188 34.331c.721.346 1.994 1.142 2.627 1.968.536.696 1.106 1.262 2.141 2.998 1.415 2.377 2.201 3.069 3.45 8.651 1.207 5.4 1.194 10.607 1.387 14.19.199 3.69-.793 15.664-.793 15.664l-22.999-1.605s-.073-11.098.177-14.782c.29-4.297 2.115-17.056 2.115-17.056l.792-4.86.793-2.997s4.056-2.825 5.981-2.923c.835-.044 3.555.382 4.329.752z" fill="#7B7DA3"/><path d="M221.14 62.944s0 6.912-1.094 8.695c-.523.854-3.197 1.907-3.197 1.907s-6.857 2.962-9.167 3.473c-2.353.522-9.573.172-11.892-.425-1.374-.355-2.653-1.776-2.653-1.776l1.429-3.574s4.431 2.49 10.993 1.251c2.896-.548 8.639-4.039 9.425-4.989 1.061-1.278-.914-14.635-.241-17.053.41-1.478 1.195-7.439 4.229-7.299 3.091.142 3.564 6.406 3.564 7.512M216.34 34.848c-.08.816-.636 2.434-1.145 2.999-.356.398-1.268 1.046-1.762 1.033-.668-.017-2.087-.594-2.448-1.253-.259-.48-.503-2.403-.503-2.403l-.398-4.82 5.288-1.448s1.116 4.403.968 5.892z" fill="#FFC8C1"/><path d="M211.841 33.393s-2.789 1.451-3.681 1.233c-1.448-.35-3.176-3.744-3.807-5.314-.85-2.117-3.069-6.387-2.9-8.717.155-2.136 1.443-6.307 2.851-7.67.781-.758 3.421-1.587 4.4-1.898.699-.225 2.249-.375 2.9 0 1.23.707 2.535 3.84 3.081 5.313.715 1.932 1.054 5.468 1.263 8.293.136 1.831-.219 5.002-.537 5.53-.659 1.085-3.57 3.23-3.57 3.23zM195.204 75.986l-.311.104s-.897.085-2.072-.2c-1.175-.287-1.803-.5-2.358-1.151-.554-.65-4.648-3.706-3.518-5.447 1.131-1.741 2.584 1.71 3.518 1.898.355.072 1.022.414 1.267.414.243 0-.174-1.08-.263-1.197-.18-.232-.873-.4-.784-.79.089-.39.11-.936.62-.754.511.181.821.492 1.175.961.354.468.82 1.066 1.573 1.325.754.262.887.312 1.154.443.265.13 0 4.47 0 4.47" fill="#FFC8C1"/><path d="M203.337 24.085c.744.21.614 1.495.964 2.935.35 1.437 1.838 1.173.613 1.79-1.227.616-2.013.19-2.278-.412-.321-.73-.174-2.67 0-3.286.176-.617.429-1.104.701-1.027z" fill="#FF6697"/><path d="M207.366 27.37c.967 0 1.751-.919 1.751-2.053 0-1.135-.784-2.054-1.751-2.054-.967 0-1.751.92-1.751 2.054s.784 2.054 1.751 2.054z" fill="#FF9198"/><path d="M212.071 21.825s.554-.505.788-.582c.156-.05.731-.314.875-.238.331.181.757.435.855.788.18.645.336 2.81-.154 3.283-.232.226-1.313.117-1.313.117l-.658-.349.527 1.16s.623 2.064.922 2.276c.611.438 1.072 1.937 1.744 1.588.418-.218 1.98-3.644 2.064-4.095.182-1.003.288-3.034.213-4.049-.05-.695-.329-2.108-.477-2.804-.223-1.052-.163-.94-1.314-4.995 0 0-.687-1.38-1.051-1.74-.592-.591-2.066-1.528-2.889-1.744-1.112-.292-3.453-.328-4.599-.23-.961.079-2.941.176-3.81.579-.902.417-2.353 1.979-2.627 2.903-.265.891.462 2.785.918 3.601.266.474 1.177 1.222 1.709 1.395.779.251 2.463-.132 3.284-.117 1.252.02 4.992.349 4.992.349v2.904h.001z" fill="#FF6697"/></svg>