<svg width="312" height="272" fill="none" xmlns="http://www.w3.org/2000/svg"><path d="M267.511 140.76c0 52.496-49.866 95.054-111.379 95.054C94.618 235.814 0 222.112 0 169.615s98.596-27.159 160.109-27.159c61.515.001 107.402-54.193 107.402-1.696z" fill="#FFB196"/><path d="M183.77 181.69c33.509 0 60.673-23.182 60.673-51.779 0-28.597-27.164-51.78-60.673-51.78s-60.673 23.183-60.673 51.78 27.164 51.779 60.673 51.779z" fill="#385B95"/><path d="M106.346 224.959l-7.696 2.049s1.64 1.778 1.571 2.702c-.068.923-1.588 2.47-2.066 2.944-.478.478-.655.662-.598 1.481.056.821.357 1.643.813 2.219.454.574 1.916 1.228 3.068 1.476 1.149.25 2.25.582 3.577 1.759 1.328 1.175 2.909 1.936 3.426 3.12.516 1.185.302 1.938 1.741 2.527 1.439.59 1.273.736 2.742.59.534-.053.646-.123 1.52-.145.886-.021 1.109.478 2.217.331 1.922-.255 2.362-.004 2.534-1.094.172-1.089-.692-2.11-1.481-2.039-.789.07-2.924-.193-3.411-.411-.489-.217-3.566-5.728-3.918-6.468-.354-.741-1.03-2.369-1.764-3.704-.735-1.333-2.275-7.337-2.275-7.337zM63.81 220.988l-7.248-.334s.574 2.32.007 3.16c-.567.84-2.834 1.691-3.542 1.947-.708.258-.975.363-1.367 1.155-.394.792-.559 1.685-.442 2.406.113.719 1.131 1.912 2.077 2.602.944.69 1.799 1.437 2.405 3.067.607 1.631 1.68 2.972 1.521 4.289-.16 1.317-.77 1.938.262 3.062 1.03 1.125.794 1.195 2.255 1.641.528.161.673.141 1.504.466.845.33.782.887 1.904 1.189 1.944.52 2.221.931 2.974-.025.755-.955.499-2.256-.282-2.502-.78-.245-2.641-1.339-2.979-1.737-.34-.398-.237-6.792-.163-7.628.07-.834.32-2.632.356-4.176.037-1.544.758-8.582.758-8.582z" fill="#FFC8C1"/><path d="M80.87 105.151l-12.174-.474s-.803-3.985-.803-8.302c0-2.613.187-5.656.553-8.25.286-2.019.878-6.353 2.487-7.852 1.342-1.25 6.41-2.917 8.38-3.138 2.16-.243 5.915-.096 7.783.38 2.185.556 6.849 1.831 8.205 3.395 2.496 2.876 3.496 10.627 3.22 14.197-.66 8.542-2.226 10.631-2.226 10.631l-15.425-.587z" fill="#7B7DA3"/><path d="M38.173 41.51l1.397 16.679 10.238-12.708-11.635-3.971zM80.653 106.708s-12.808 2.868-16.908 4.244c-1.38.464-4.115 1.51-5.304 2.265-2.259 1.431-6.66 4.661-7.958 6.79-2.08 3.41-4.803 11.218-3.98 14.997.47 2.148 2.69 6.654 4.974 7.64 2.512 1.085 9.316.733 12.345.225 2.016-.34 7.885-1.987 7.885-1.987l-1.575-5.64-2.593.304-2.468-.542-2.983-2.264.994-5.092 4.973-3.397 8.29-1.131 4.308-16.412z" fill="#FF6697"/><path d="M56.467 137.309s-1.607 10.22-.995 13.582c.246 1.35 1.548 3.897 2.321 5.093.522.808 2.857 3.449 2.857 3.449l37.687-6.98s-3.22-6.02-4.073-8.353c-.91-2.491-2.597-7.578-2.653-10.186-.047-2.291.892-6.86 1.657-9.055.332-.944 1.659-3.678 1.659-3.678s8.288 3.298 11.272 3.678c2.383.304 7.262-.126 9.615-.566 2.927-.547 8.246-1.774 11.605-2.547 1.601-.368 5.751-1.622 7.606-2.299.681-.249 2.672-1.095 2.672-1.095l-1.657-7.358s-7.428 1.623-9.947 1.981c-3.847.547-11.719 1.014-15.583.566-2.935-.342-11.272-3.112-11.272-3.112s-7.875-2.414-10.61-2.829c-1.634-.249-6.631-.284-6.631-.284l-15.251 11.318-10.28 18.675z" fill="#FF6697"/><path d="M70.868 135.546l1.094 4.728s1.344.16 1.522.15c.84-.049.825.031 1.46-.097.156-.031.487-.061 2.585-.507 0 0 .457-.136.524-.315.056-.151.108-.763-.015-.879-.13-.122-.557-.162-.742-.18-.39-.037-1.057.006-1.57.086-.234.036-1.27.247-1.451.116-.132-.096-.005-.471.101-.586.89-.972 3.993-1.441 5.34-1.887.744-.247 2.145-1.013 2.617-1.562.25-.292.408-1.104.23-1.433-.225-.411-1.38-.748-1.907-.802-.827-.084-2.442.466-3.23.694-1.136.329-4.406 1.625-4.406 1.625l-2.152.849zM137.27 111.432l1.679 4.859 2.384-1.142 5.255-1.868 2.92-2.16 1.096-1.745.51-2.014-1.679-1.017-.997-.042-2.117.706-5.353 2.72.682-1.328 1.63-1.745.705-1.64-.462-.436-1.022.456-1.971 2.056-1.922 2.596-.584 1.391-.754.353zM74.941 92.722s-.228-3.252-.072-4.326c.128-.875.567-2.639 1.071-3.41.24-.369 1.274-1.521 1.805-1.944.465-.371 1.469-1.065 2.05-1.286.605-.23 1.925-.756 2.574-.864.715-.119 2.128-.235 2.852-.172.772.067 2.2.682 2.855 1.035.617.332 1.87.999 2.356 1.463.511.49 1.326 1.632 1.571 2.254.263.674.57 2.091.571 2.802 0 .768-.237 2.297-.428 3.046-.115.448-.571 1.769-.571 1.769s.975-.921 1.427-.976c.325-.04 1.028.194 1.214.427.224.281.3 1 .284 1.34-.02.43-.19 1.283-.284 1.705-.112.502-.42 1.506-.714 1.95-.215.324-1.018.98-1.428.853-.383-.118-.429-1.34-.429-1.34s-.967 2.979-1.5 3.9c-.406.705-1.557 1.951-2.14 2.559-.65.674-2.122 1.926-3 2.376-.537.275-1.798.529-2.426.548-.758.022-2.26-.367-2.927-.671-.993-.45-2.562-1.9-3.214-2.68-.501-.601-1.114-2.018-1.285-2.742-.214-.911-.071-3.716-.071-3.716s-.721.408-.999.427c-.412.027-1.308-.157-1.571-.427-.376-.386-.6-1.448-.572-1.95.031-.528.174-1.622.5-2.071.188-.257.719-.756 1.073-.793.19-.019.713.244.713.244l.715.67z" fill="#FFC8C1"/><path d="M82.138 92.487c-.389.616-.666 2.74-.666 2.74s-.464 2.242-.424 2.997c.02.364.295 1.163.666 1.343.43.21 1.494-.172 1.938-.361.25-.106.868-.49 1.026-.743.177-.283.189-.915.186-1.273-.005-.605-.49-1.773-.545-2.377-.035-.374.06-1.498.06-1.498s-.074-1.172-.364-1.447c-.165-.158-.73-.207-.968-.156-.311.069-.756.535-.909.775z" fill="#FF6697"/><path d="M78.367 103.933s-1.5 4.35-1.57 5.849c-.03.63.053 1.953.428 2.498.275.399 1.135 1.049 1.642 1.218.368.124 1.189.274 1.571.183.605-.145 1.676-.8 2.07-1.219.354-.377.947-1.233 1.07-1.706.406-1.546.072-6.335.072-6.335l-5.283-.488z" fill="#FFC8C1"/><path d="M79.769 96.313c0 .998-.947 1.807-2.116 1.807-1.17 0-2.117-.81-2.117-1.807 0-.997.947-1.805 2.117-1.805 1.169 0 2.116.808 2.116 1.805zM88.472 97.521c1.22 0 2.209-.844 2.209-1.885s-.99-1.885-2.21-1.885c-1.219 0-2.208.844-2.208 1.885s.989 1.885 2.209 1.885z" fill="#FFB196"/><path d="M60.987 160.699s-1.205 6.839-1.11 9.863c.159 5.149 2.209 17.692 1.608 22.817-.702 5.979-2.436 13.365-5.255 18.871-1.07 2.093-6.928 12.322-6.928 12.322l17.405 2.123s3.83-8.731 5.106-11.709c2.876-6.713 9.1-20.298 10.56-27.337 1.095-5.276.249-21.433.249-21.433s9.32 21.429 11.189 28.861c1.52 6.049 3.406 18.439 2.983 24.616-.157 2.316-1.989 9.124-1.989 9.124l15.168-.212s1.534-12.72 1.741-16.976c.322-6.634-.099-19.994-1.491-26.526-1.089-5.101-4.663-14.774-6.469-19.634-1.114-2.998-4.473-11.985-4.473-11.985l-38.294 7.215z" fill="#FFD594"/><path d="M73.637 88.406s2.218.054 2.946-.048c.91-.127 3.166-.853 3.5-.996.334-.142 2.39-1.516 2.556-1.611.167-.095 1.91-1.946 2.334-2.704.355-.633.889-2.704.889-2.704l-.667-.995-6.779.332-3.89 3.035-.889 5.69zM85.702 83.179s.468-.68.727-1.843c.262-1.18.266-1.987.266-1.987l4.89 2.56 2.389 5.265-.834 3.698-1.565 2.217s.243-3.167.066-4.209c-.156-.904-.979-2.668-1.668-3.367-.744-.754-4.271-2.334-4.271-2.334z" fill="#7B7DA3"/><path d="M64.027 47.523l2.237 12.732 7.958-11.46-10.195-1.272z" fill="#FF9198"/><path d="M87.401 49.362h15.167l-6.713 16.764-8.454-16.764z" fill="#FFB196"/><path d="M119.109 48.272l3.968 14.997 8.273-14.699-12.241-.298z" fill="#FFD594"/><path d="M148.735 48.277l14.671-1.485-3.233 16.127-11.438-14.642z" fill="#385B95"/><path d="M172.882 45.258l15.168-2.545-5.221 16.34-9.947-13.795z" fill="#7B7DA3"/><path d="M200.897 39.837l17.021-4.622-2.848 20.796-14.173-16.174z" fill="#FFC8C1"/><path d="M230.156 30.994l15.167-7.78.993 18.248-16.16-10.468z" fill="#BFEAF2"/><path d="M159.295 125.406c.019.352-.073.702 0 1.054v-1.054z" fill="#fff"/><path d="M34.79 40.535c14.638 6.25 30.706 8.427 46.927 8.897 17.108.496 34.323-.354 51.436-.548 17.038-.193 34.007-1.535 50.6-4.931 7.915-1.62 15.788-3.536 23.637-5.38 7.482-1.759 14.828-3.988 21.788-6.93 6.704-2.836 12.942-6.435 19.156-9.972.441-.252.027-.864-.419-.61-6.757 3.845-13.54 7.666-20.867 10.685-7.414 3.054-15.336 5.13-23.273 6.927-8.11 1.834-16.182 3.86-24.373 5.411-8.702 1.647-17.546 2.681-26.423 3.321-17.233 1.242-34.655.91-51.938 1.283-17.044.368-34.297.24-50.826-3.748-5.182-1.25-10.194-2.962-15.007-5.016-.477-.203-.897.407-.419.61z" fill="#385B95"/><path d="M12.928 117.136c5.034 0 9.114-3.483 9.114-7.778 0-4.296-4.08-7.779-9.114-7.779-5.034 0-9.114 3.483-9.114 7.779 0 4.295 4.08 7.778 9.114 7.778zM28.37 126.642c3.216 0 5.823-2.225 5.823-4.969s-2.607-4.969-5.822-4.969c-3.216 0-5.822 2.225-5.822 4.969s2.606 4.969 5.822 4.969zM288.401 221.644c13.033 0 23.599-9.017 23.599-20.14 0-11.123-10.566-20.14-23.599-20.14-13.034 0-23.599 9.017-23.599 20.14 0 11.123 10.565 20.14 23.599 20.14zM253.741 249.985c-8.319.343-15.388-5.132-15.788-12.23-.404-7.098 6.012-13.13 14.33-13.474 8.317-.344 15.386 5.132 15.788 12.23.404 7.098-6.014 13.131-14.33 13.474z" fill="#FFB196"/></svg>