<svg width="313" height="272" fill="none" xmlns="http://www.w3.org/2000/svg"><path opacity=".7" d="M302.585 139.539c0 55.7-45.212 100.853-100.984 100.853-55.773 0-201.204-53.557-201.204-109.257S185.61 15 241.382 15c55.772 0 61.203 68.839 61.203 124.539z" fill="#FFD594"/><path d="M152.963 70.382s-3.074-4.395-4.609-5.216c-1.559-.835-5.351-.731-7.068-.307-2.071.511-5.71 2.961-7.374 4.296-.863.692-2.587 2.325-3.687 2.454-1.545.183-4.309-1.867-5.839-2.147-1.677-.307-5.302.036-6.76.921-2.001 1.215-5.554 3.906-7.008 5.74-1.176 1.483-1.848 2.86-1.3 6.114.102.605 3.061 1.984.319 3.797-3.221 2.131-7.328 2.381-9.525 3.682-2.15 1.273-5.766 5.073-6.76 7.364-1.084 2.5-2.244 8.046-1.844 10.74.329 2.214 1.97 6.547 3.38 8.287.459.565 1.536 1.228.922 2.761-.614 1.534-3.57 5.363-4.302 7.365-.584 1.601-1.107 5.058-.921 6.751.209 1.907 1.252 5.671 2.15 7.365.669 1.261 3.38 4.603 3.38 4.603l7.375 1.843 3.687.305 76.511 7.672 8.296-2.147s.921-5.524.921-6.751c0-1.229.246.279 1.948.17 1.797-.115 6.208 4.752 6.208 4.752s5.366.294 6.594 1.216c1.23.92 10.123 2.556 13.52 2.147 2.75-.331 7.021.776 10.871-1.856 4.344-2.971 4.294-4.752 4.661-6.543.544-2.654-.564-5.28.138-6.024 1.05-1.114 4.352 1.475 5.84 1.842 2.168.534 6.797.103 8.909-.615 2.799-.951 8.649-3.183 10.448-5.523 1.703-2.215 3.258-7.954 3.072-10.741-.105-1.599-.841-4.885-1.843-6.137-1.037-1.297-3.926-3.252-5.53-3.683-2.079-.556-7.172 1.298-8.605-.306-.672-.752.112-3.116.615-3.989.682-1.185 2.816-3.052 3.381-4.297.702-1.553 1.046-5.052.921-6.75-.121-1.637-.158-5.203-1.229-6.446-1.509-1.748-6.298-3.218-8.604-3.375-2.539-.171-7.598.797-10.14.92-1.69.083-5.789 1.077-6.761-.306-.824-1.173 1.132-4.148 1.538-5.523.565-1.92 1.373-6.128.614-7.979-.701-1.707-3.532-4.476-5.224-5.217-1.713-.748-3.496-1.435-7.561-2.102-2.359-.387-5.801-.24-7.802-.046-2.975.289-11.37 3.683-11.37 3.683s-8.923 2.578-11.676 1.534c-1.426-.54-3.995-4.604-3.995-4.604s-3.428-6.198-5.223-7.671c-1.445-1.186-5.212-2.216-7.067-2.454-1.692-.218-5.134.403-6.76.92-1.544.49-4.349 2.267-5.53 3.376-1.367 1.28-4.302 6.135-4.302 6.135z" fill="#FF9198"/><path d="M143.703 98.73s-.421-7.035-.133-9.356c.237-1.895 1.049-5.71 1.979-7.378.445-.797 2.354-3.288 3.336-4.202.859-.8 2.715-2.303 3.788-2.782 1.117-.497 3.557-1.635 4.758-1.868 1.321-.257 3.931-.507 5.269-.371 1.427.144 4.066 1.475 5.278 2.24 1.138.717 3.458 2.158 4.353 3.161.945 1.058 2.452 3.531 2.903 4.875.488 1.46 1.052 4.524 1.055 6.061.003 1.66-.438 4.968-.792 6.589-.21.968-1.055 3.821-1.055 3.821s1.802-1.989 2.639-2.107c.6-.087 1.9.421 2.242.92.417.61.556 2.164.527 2.9-.036.931-.354 2.775-.527 3.69-.206 1.085-.775 3.255-1.319 4.215-.397.701-1.882 2.119-2.639 1.846-.706-.256-.791-2.898-.791-2.898s-1.79 6.441-2.77 8.431c-.753 1.526-2.879 4.22-3.959 5.534-1.199 1.46-3.919 4.168-5.54 5.138-.995.597-3.326 1.146-4.486 1.186-1.4.051-4.174-.791-5.409-1.449-1.833-.974-4.733-4.109-5.938-5.798-.926-1.3-2.058-4.363-2.374-5.929-.395-1.969-.132-8.036-.132-8.036s-1.332.881-1.846.922c-.76.059-2.417-.338-2.903-.922-.695-.836-1.108-3.132-1.056-4.217.056-1.143.32-3.508.924-4.48.345-.557 1.329-1.635 1.979-1.713.352-.043 1.32.526 1.32.526l1.319 1.45z" fill="#FFC8C1"/><path d="M157.005 98.222c-.719 1.33-1.231 5.922-1.231 5.922s-.86 4.852-.784 6.483c.037.788.545 2.516 1.232 2.905.796.454 2.76-.374 3.582-.781.461-.23 1.603-1.06 1.896-1.608.326-.612.347-1.979.341-2.752-.008-1.308-.902-3.835-1.007-5.141-.063-.808.112-3.241.112-3.241s-.138-2.534-.672-3.129c-.304-.34-1.349-.45-1.791-.336-.574.149-1.397 1.156-1.678 1.678z" fill="#FF6697"/><path d="M144.23 130.751c4.839-.34 14.629-.378 19.395.527 3.442.652 9.946 2.235 13.312 3.211 3.128.907 9.673 3.16 12.545 4.694 3.096 1.654 10.163 7.549 13.204 9.298 5.254 3.022 13.709 8.49 14.766 9.017 1.056.526 18.997 8.144 22.954 9.198 3.956 1.054 14.147 2.393 18.984 2.07 3.849-.257 16.083.165 16.083.165s.08 3.436.083 5.3c.004 2.092.415 4.801.415 4.801s-13.85 4.913-18.653 5.79c-4.044.74-12.308 1.173-16.415.994-4.612-.201-13.726-1.482-18.321-2.314-4.682-.846-18.487-4.392-18.487-4.392s-16.047-7.308-22.652-6.492c-1.799.222-6.948.971-7.886 2.521-3.317 5.472-.038 21.212 2.208 33.712 2.209 12.289 8.202 29.931 8.202 29.931l-65.178 3.417-1.243-32.538.248-24.342s1.931-12.745-.497-15.896c-7.711-10.002-36.374-10.83-48.746-13.412-8.883-1.856-35.93-5.177-35.93-5.177l.319-10.716s12.903.763 17.207.989c7.832.411 23.5 1.812 31.335 1.491 6.327-.259 25.12-3.23 25.12-3.23l24.871-6.457c0 .001 9.531-1.933 12.757-2.16z" fill="#BFEAF2"/><path d="M30.995 139.866l-.497 10.432s-5.805-.607-7.71-.993c-1.986-.402-5.872-1.632-7.71-2.483-1.173-.545-3.315-2.065-4.228-2.981-.846-.85-1.813-2.93-1.105-3.898.59-.804 2.457-1.327 3.365-1.415 1.773-.173 5.003.117 7.082.779.676.213 3.968 1.412 4.338.807.966-1.574-3.777-4.057-4.973-5.463-.397-.467-1.422-1.798-.995-2.236.589-.605 3.233.993 3.233.993s2.477 1.868 3.32 2.467c1.448 1.029 5.88 3.991 5.88 3.991zM277.544 168.948l.13 9.252s8.987.134 12.034.172c2.052.026 6.285.173 9.133 0 4.286-.258 6.69-.922 6.69-.922s4.841-1.066 5.648-2.623c.452-.871.215-4.409-.823-5.057-1.353-.844-3.653-1.461-5.205-1.832-2.036-.485-8.372.25-8.372.25l-7.911.818s5.536-2.157 6.964-3.478c1.58-1.464.5-3.279-.747-3.23-1.167.048-3.39 1.121-4.442 1.667-1.498.779-4.82 2.391-6.216 3.341-1.096.746-3.34 1.732-4.514 1.7M150.036 122.973s-2.772 9.408-2.903 12.649c-.055 1.363.1 4.224.791 5.401.51.866 2.099 2.27 3.035 2.635.682.267 2.197.593 2.902.397 1.119-.313 3.098-1.73 3.826-2.636.656-.816 1.752-2.667 1.978-3.689.751-3.344.134-13.702.134-13.702l-9.763-1.055z" fill="#FFC8C1"/><path d="M148.716 110.401a3.909 3.909 0 003.911-3.906 3.908 3.908 0 00-3.911-3.906 3.909 3.909 0 00-3.912 3.906 3.91 3.91 0 003.912 3.906zM168.708 109.107a4.08 4.08 0 004.082-4.077 4.08 4.08 0 00-4.082-4.076 4.079 4.079 0 00-4.082 4.076 4.08 4.08 0 004.082 4.077z" fill="#FFB196"/><path d="M41.524 94.926c10.027 0 18.155-8.117 18.155-18.131s-8.128-18.131-18.155-18.131c-10.027 0-18.155 8.117-18.155 18.131s8.128 18.131 18.155 18.131z" stroke="#FF9198" stroke-width="12.605" stroke-miterlimit="10"/><path d="M250.863 257c17.598 0 31.864-14.247 31.864-31.822s-14.266-31.823-31.864-31.823c-17.597 0-31.863 14.248-31.863 31.823C219 242.753 233.266 257 250.863 257z" stroke="#7B7DA3" stroke-width="12.605" stroke-miterlimit="10"/><path opacity=".7" d="M42.636 228.878c7.366 0 13.338-5.964 13.338-13.321 0-7.357-5.972-13.321-13.338-13.321-7.367 0-13.339 5.964-13.339 13.321 0 7.357 5.972 13.321 13.339 13.321zM65.236 245.159c4.707 0 8.522-3.81 8.522-8.51 0-4.701-3.815-8.511-8.522-8.511-4.706 0-8.521 3.81-8.521 8.511 0 4.7 3.815 8.51 8.521 8.51z" fill="#FFD594"/></svg>